<?xml version="1.0" standalone="no"?>
<!DOCTYPE svg PUBLIC "-//W3C//DTD SVG 20010904//EN"
 "http://www.w3.org/TR/2001/REC-SVG-20010904/DTD/svg10.dtd">
<svg version="1.0" xmlns="http://www.w3.org/2000/svg"
 width="560.000000pt" height="560.000000pt" viewBox="0 0 560.000000 560.000000"
 preserveAspectRatio="xMidYMid meet">
<metadata>
Created by potrace 1.11, written by Peter Selinger 2001-2013
</metadata>
<g transform="translate(0.000000,560.000000) scale(0.100000,-0.100000)"
fill="#000000" stroke="none">
<path d="M2599 5295 c-2 -1 -33 -6 -69 -9 -204 -18 -480 -88 -680 -171 -734
-304 -1276 -928 -1474 -1697 -29 -112 -55 -252 -64 -353 -9 -95 -9 -445 1
-525 4 -36 10 -85 13 -110 16 -136 83 -388 144 -542 71 -177 145 -318 256
-483 104 -155 100 -151 120 -134 10 8 569 566 1244 1241 l1228 1228 -40 67
c-98 166 -159 339 -193 547 -13 79 -14 349 -1 426 3 19 8 51 11 70 14 87 70
259 119 359 27 57 29 55 -59 67 -27 3 -59 8 -70 11 -23 6 -481 14 -486 8z
m-599 -885 c419 -139 588 -618 346 -983 -86 -129 -249 -240 -401 -272 -136
-28 -306 -5 -430 57 -156 80 -292 252 -335 423 -18 71 -20 218 -3 295 51 232
243 429 478 489 96 25 256 20 345 -9z"/>
<path d="M2495 2074 c-1209 -1210 -1240 -1242 -1220 -1258 45 -38 275 -186
345 -223 277 -148 600 -246 915 -280 87 -10 435 -10 531 -1 171 16 488 92 619
147 11 5 61 26 110 47 639 272 1151 827 1374 1489 31 93 85 299 95 370 27 171
31 227 31 435 0 210 -8 318 -30 418 l-5 22 -39 -20 c-115 -58 -313 -119 -446
-137 -33 -4 -134 -8 -225 -8 -155 1 -181 4 -350 40 -95 21 -273 94 -405 167
l-60 34 -1240 -1242z m1485 355 c111 -36 180 -79 265 -164 64 -64 89 -97 122
-165 50 -105 64 -160 68 -273 9 -287 -173 -543 -455 -637 -83 -28 -235 -33
-329 -13 -220 49 -408 222 -481 443 -27 83 -34 239 -14 329 38 179 180 360
345 439 46 23 116 47 154 56 95 20 240 13 325 -15z"/>
</g>
</svg>
